<?xml version="1.0" encoding="utf-8"?>
<svg viewBox="0 0 300 300" xmlns="http://www.w3.org/2000/svg" xmlns:bx="https://boxy-svg.com">
  <rect x="150" y="150" width="100" height="50" style="stroke-opacity: 0.6; fill: rgb(51, 153, 255);"/>
  <rect x="761.101" y="270.492" width="0.74" height="0.74" style="fill: rgb(216, 216, 216); fill-opacity: 0.6;"/>
  <path style="fill: rgb(51, 153, 255);" transform="matrix(0.798786, 0, 0, 0.798786, -104.972481, 27.785759)" d="M 194.01 153 A 125.19 125.19 0 0 1 319.2 27.81 L 319.2 153 Z" bx:shape="pie 319.2 153 0 125.19 270 360 1@d76241e1"/>
  <path d="M 24.602 -9.73 L 24.602 40.27 L -75.398 40.27 L 24.602 -9.73 Z" style="fill: rgb(51, 153, 255);" transform="matrix(1, -0.000002, -0.001532, -1, 125.45969, 190.269954)" bx:shape="triangle -75.398 -9.73 100 50 1 0 1@bbc4cb81" bx:origin="0.250735 1.979981"/>
  <line style="stroke: rgb(0, 0, 0);" x1="25" y1="149.5" x2="275" y2="150.5" bx:origin="0.500692 0"/>
  <line style="stroke: rgb(0, 0, 0);" x1="150" y1="25" x2="150" y2="275" transform="matrix(-1, 0, 0, -1, 300, 300)"/>
  <text style="fill: rgb(51, 51, 51); font-family: Arial, sans-serif; font-size: 19.225px; font-weight: 700; white-space: pre;" transform="matrix(0.321932, 0, 0, 0.416125, 213.714233, 121.107925)" x="106.508" y="57.716">R</text>
  <line style="stroke: rgb(0, 0, 0);" x1="50" y1="148" x2="50" y2="152"/>
  <line style="stroke: rgb(0, 0, 0);" x1="100" y1="148" x2="100" y2="152"/>
  <line style="stroke: rgb(0, 0, 0);" x1="200" y1="148" x2="200" y2="152"/>
  <line style="stroke: rgb(0, 0, 0);" x1="250" y1="148" x2="250" y2="152"/>
  <line style="stroke: rgb(0, 0, 0);" x1="150" y1="48" x2="150" y2="52" transform="matrix(0, 1, -1, 0, 200, -100)"/>
  <line style="stroke: rgb(0, 0, 0);" x1="150" y1="248" x2="150" y2="252" transform="matrix(0, 1, -1, 0, 400, 100)"/>
  <line style="stroke: rgb(0, 0, 0);" x1="150" y1="98" x2="150" y2="102" transform="matrix(0, 1, -1, 0, 250, -50)"/>
  <line style="stroke: rgb(0, 0, 0);" x1="150" y1="198" x2="150" y2="202" transform="matrix(0, 1, -1, 0, 350, 50)"/>
  <text style="fill: rgb(51, 51, 51); font-family: Arial, sans-serif; font-size: 19.225px; font-weight: 700; white-space: pre;" transform="matrix(0.321932, 0, 0, 0.416125, 120.714241, 78.107925)" x="106.508" y="57.716">R/2</text>
  <text style="fill: rgb(51, 51, 51); font-family: Arial, sans-serif; font-size: 19.225px; font-weight: 700; white-space: pre;" transform="matrix(0.321932, 0, 0, 0.416125, 120.714241, 29.036404)" x="106.508" y="57.716">R</text>
  <text style="fill: rgb(51, 51, 51); font-family: Arial, sans-serif; font-size: 19.225px; font-weight: 700; white-space: pre;" transform="matrix(0.321932, 0, 0, 0.416125, 120.714233, 228.107925)" x="106.508" y="57.716">-R</text>
  <text style="fill: rgb(51, 51, 51); font-family: Arial, sans-serif; font-size: 19.225px; font-weight: 700; white-space: pre;" transform="matrix(0.321932, 0, 0, 0.416125, 11.71424, 121.107925)" x="106.508" y="57.716">-R</text>
  <text style="fill: rgb(51, 51, 51); font-family: Arial, sans-serif; font-size: 19.225px; font-weight: 700; white-space: pre;" transform="matrix(0.321932, 0, 0, 0.416125, 120.714241, 178.107925)" x="106.508" y="57.716">-R/2</text>
  <text style="fill: rgb(51, 51, 51); font-family: Arial, sans-serif; font-size: 19.225px; font-weight: 700; white-space: pre;" transform="matrix(0.321932, 0, 0, 0.416125, 58.714241, 121.107925)" x="106.508" y="57.716">-R/2</text>
  <text style="fill: rgb(51, 51, 51); font-family: Arial, sans-serif; font-size: 19.225px; font-weight: 700; white-space: pre;" transform="matrix(0.321932, 0, 0, 0.416125, 158.714233, 121.107925)" x="106.508" y="57.716">-R/2</text>
  <path d="M 90.071 58.82 L 91.571 62.82 L 88.571 62.82 L 90.071 58.82 Z" style="" transform="matrix(1, -0.000004, 0.000004, 1, 59.928764, -36.820053)" bx:shape="triangle 88.571 58.82 3 4 0.5 0 1@01c55a16"/>
  <path d="M 122.788 31.44 L 124.288 35.44 L 121.288 35.44 L 122.788 31.44 Z" style="" transform="matrix(0.000077, -1, -1, -0.000077, 310.430658, 273.290742)" bx:shape="triangle 121.288 31.44 3 4 0.5 0 1@511d04ab"/>
</svg>